<?xml version="1.0" encoding="utf-8"?>
<!-- Generator: Adobe Adobe Illustrator 24.2.0, SVG Export Plug-In . SVG Version: 6.00 Build 0)  -->
<svg version="1.1" xmlns="http://www.w3.org/2000/svg" xmlns:xlink="http://www.w3.org/1999/xlink" x="0px" y="0px"
	 viewBox="0 0 940 440" style="enable-background:new 0 0 940 440;" xml:space="preserve">
<style type="text/css">
	.st0{display:none;}
	.st1{display:inline;fill:#2B2B2B;}
	.st2{fill:#2B2B2B;}
</style>
<g id="Layer_1" class="st0">
</g>
<g id="Layer_2">
	<g>
		<path class="st2" d="M281.32,80.61c-9.22,0-18.44,3.69-23.97,10.45c-14.75,47.33-44.26,88.52-60.86,134.62
			c-4.92,5.53-4.3,15.98-12.91,17.83c-19.06-20.9-30.12-46.1-46.1-68.85c-21.51-31.35-34.42-88.52-80.53-88.52
			c-11.06,0-17.83,9.83-21.51,19.06c1.84,32.58,0.61,65.16,0.61,97.74c0,30.12,2.46,57.78,5.53,87.29v7.99
			c0,29.51-9.22,60.24,26.43,67.62c9.84-3.69,25.2-4.92,28.28-17.83c-3.07-9.84-3.69-19.67-3.69-30.12
			c0-28.89-3.69-57.78-3.69-86.06c0-9.22,0.61-18.44,2.46-27.66c18.44,19.06,27.66,46.1,46.1,64.54c4.3,4.92,9.22,8.61,12.91,13.52
			c6.15,7.38,33.19,46.1,41.8,46.1c15.37,0,27.05-24.59,32.58-36.88c8.61-16.6,14.75-34.42,22.13-51.64
			c11.68-28.28,23.36-55.94,36.88-82.99c9.22-18.44,31.35-37.5,31.35-59.01C315.13,85.53,291.15,80.61,281.32,80.61z"/>
		<path class="st2" d="M520.44,188.18c3.69-12.91,27.05-17.83,27.05-60.24c0-9.22-1.84-19.06-5.53-27.66
			c-23.97-54.09-87.29-56.55-138.31-56.55c-14.14,0-44.87,0-44.87,20.29c0,36.88-2.46,74.38-2.46,111.26
			c0,46.72,1.84,93.44,1.84,139.54c0,17.21-4.3,33.81-4.3,51.02c0,14.14,3.69,27.66,17.21,33.81c1.23,0.61,6.76,2.46,7.99,2.46
			c13.52,0,27.05,1.23,39.96,1.23c47.95,0,102.04-20.29,138.31-50.41c24.59-19.67,36.27-47.33,36.27-78.68
			C593.59,233.67,557.32,199.25,520.44,188.18z M422.44,117.98c7.46-25.78,58.82-4.79,63.02,14.77c0.63,4.93-4.16,6.98-4.16,6.98
			C464.35,149.13,418.87,146.48,422.44,117.98z M494.74,282.41c-11.87,12.33-25.66,22.55-40.63,30.12
			c-8.4,4.25-18.32,7.62-26.81,3.79c0.78,3.62,2.55,7.15,4.94,10c4.66,5.52,4.07,16.36-4.23,17.09c-3.01,0.26-11.26-4.45-4.98-17.84
			c1.44-3.08,2.91-6.77,3.53-10.46c-1.48-25.99,12.33-52.31,33.94-64.46c2.06,0.4,9.58-7.6,19.26-10.91
			c9.68-3.32,22.1-0.22,26.39,9.61C511.12,260.73,503.18,273.65,494.74,282.41z"/>
		<path class="st2" d="M876.96,80.61c-9.22,0-18.44,3.69-23.97,10.45c-14.75,47.33-44.26,88.52-60.86,134.62
			c-4.92,5.53-4.3,15.98-12.91,17.83c-19.06-20.9-30.12-46.1-46.1-68.85c-21.51-31.35-34.42-88.52-80.53-88.52
			c-11.07,0-17.83,9.83-21.51,19.06c1.84,32.58,0.61,65.16,0.61,97.74c0,30.12,2.46,57.78,5.53,87.29v7.99
			c0,29.51-9.22,60.24,26.43,67.62c9.84-3.69,25.2-4.92,28.28-17.83c-3.07-9.84-3.69-19.67-3.69-30.12
			c0-28.89-3.69-57.78-3.69-86.06c0-9.22,0.61-18.44,2.46-27.66c18.44,19.06,27.66,46.1,46.1,64.54c4.3,4.92,9.22,8.61,12.91,13.52
			c6.15,7.38,33.19,46.1,41.8,46.1c15.37,0,27.05-24.59,32.58-36.88c8.61-16.6,14.75-34.42,22.13-51.64
			c11.68-28.28,23.36-55.94,36.88-82.99c9.22-18.44,31.35-37.5,31.35-59.01C910.77,85.53,886.79,80.61,876.96,80.61z"/>
		<path class="st2" d="M440.72,308.19l-0.37-0.93c9.54-3.76,18.55-9,26.78-15.56l0.62,0.78
			C459.45,299.11,450.35,304.4,440.72,308.19z M445.93,300.3l-0.9-0.43c7.41-15.52,18.11-29.77,30.95-41.21l0.67,0.75
			C463.9,270.76,453.28,284.9,445.93,300.3z M459.54,289.98l-0.66-0.75c9.1-7.94,17.52-16.76,25.02-26.23l0.78,0.62
			C477.15,273.14,468.69,282.01,459.54,289.98z M472.07,288.18l-0.64-0.77c10.73-9.04,19.69-20.48,25.91-33.07l0.9,0.44
			C491.96,267.5,482.91,279.05,472.07,288.18z M443.39,284.29l-0.85-0.52c10.1-16.61,25.55-29.84,43.51-37.25l0.38,0.92
			C468.66,254.78,453.37,267.87,443.39,284.29z M463.74,137.63c-13.05,0-26.02-4.21-36.54-12.03l0.6-0.8
			c12.48,9.27,28.48,13.39,43.89,11.29l0.13,0.99C469.14,137.45,466.44,137.63,463.74,137.63z M481.75,133.69
			c-11.16-14.01-29.19-21.98-47.06-20.77l-0.07-1c18.19-1.22,36.55,6.88,47.91,21.15L481.75,133.69z M468.94,133.23
			c-11.02,0-21.99-3.18-31.28-9.13l0.54-0.84c10.3,6.59,22.68,9.72,34.87,8.82l0.07,1C471.74,133.18,470.34,133.23,468.94,133.23z
			 M459.21,123.8c-4.74-2.15-9.99-3.14-15.18-2.85l-0.06-1c5.36-0.3,10.77,0.72,15.65,2.94L459.21,123.8z"/>
	</g>
</g>
</svg>
